<svg version="1.1" id="Layer_1" xmlns="http://www.w3.org/2000/svg" xmlns:xlink="http://www.w3.org/1999/xlink" x="0px" y="0px"
	 width="100%" viewBox="0 0 601 910" enable-background="new 0 0 601 910" xml:space="preserve">
<path fill="none" opacity="1.000000" stroke="#000000" stroke-linecap="round" stroke-linejoin="round" stroke-width="3.000000"
	d="
M213.500000,883.500000 
	C212.653336,890.000000 212.653336,890.000000 219.500000,890.000000 
	C332.500000,890.000000 445.500000,890.000000 558.500000,890.000000 
	C565.000000,890.000000 565.000000,890.000000 565.000000,883.500000 
	C565.000000,598.166687 565.000000,312.833344 565.000000,27.500000 
	C565.000000,20.999994 565.000000,20.999998 558.500000,20.999998 
	C383.833344,21.000000 209.166672,21.000000 34.500000,21.000000 
	C32.816666,21.000000 31.133333,21.000000 29.250000,21.000000 
	C29.250000,310.833344 29.250000,600.166687 29.250000,890.000000 
	C31.155939,890.000000 32.827969,890.000000 34.500000,890.000000 
	C77.500000,890.000000 120.500069,889.968201 163.499878,890.058228 
	C167.086136,890.065735 170.087814,890.005493 170.524414,885.502380 
	C170.556000,885.176636 170.450790,884.890564 170.932861,884.429749 
	C180.816208,874.982300 190.588058,865.418274 200.473343,855.788513 
	C208.405640,863.279968 211.914368,872.677063 213.500000,883.000000 
"/>
<path fill="none" opacity="1.000000" stroke="#000000" stroke-linecap="round" stroke-linejoin="round" stroke-width="3.000000"
	d="
M378.000000,800.000000 
	C369.352234,801.149231 360.665771,800.271851 351.999207,800.464905 
	C347.109711,800.573730 345.903931,799.595520 345.945435,806.500305 
	C346.087646,830.166138 345.992493,853.833313 346.014648,877.500000 
	C346.016388,879.338257 345.664978,881.227417 346.594269,883.250000 
	C416.999207,883.250000 487.499603,883.250000 558.500000,883.250000 
	C558.500000,856.171753 558.500000,828.837402 558.500000,801.163513 
	C554.858398,800.943848 551.179443,800.533447 547.499939,800.528931 
	C508.833374,800.482056 470.166656,800.500000 431.500000,800.500000 
	C430.500000,800.500000 429.496887,800.448242 428.500519,800.508362 
	C422.009491,800.900024 422.009979,800.908081 423.616272,794.000000 
	C468.498779,794.000000 513.501221,794.000000 559.000000,794.000000 
	C559.000000,784.839722 558.969849,776.169678 559.016785,767.500061 
	C559.032715,764.559509 557.097778,764.495239 555.000000,764.497437 
	C548.166687,764.504456 541.333252,764.518494 534.500061,764.488281 
	C532.553223,764.479675 530.417419,765.025085 528.973572,762.827576 
	C533.857056,753.425415 538.805481,743.898193 544.144897,733.618164 
	C536.466858,729.757874 528.540344,725.772644 520.803894,721.883057 
	C518.669800,722.455078 518.370728,724.278687 517.546570,725.530640 
	C512.720947,732.860657 505.534454,737.155212 497.990356,740.981018 
	C492.539764,743.745117 486.825317,746.034851 481.566162,749.113037 
	C478.459503,750.931335 475.432037,751.538757 471.999908,751.523743 
	C458.666809,751.465515 445.333221,751.468567 432.000092,751.523254 
	C428.871063,751.536133 426.240784,750.895569 423.422760,749.122803 
	C414.888458,743.754028 406.004150,738.941650 397.161835,733.858215 
	C401.879395,721.122437 406.345062,708.774292 411.118744,696.546387 
	C411.721130,695.003357 413.170471,693.655029 415.433594,692.820007 
	C426.082794,688.891052 436.594788,684.543396 446.943329,679.874390 
	C450.125641,678.438477 452.425812,679.645996 454.989532,680.530334 
	C466.150665,684.380127 477.107697,688.805664 488.458282,692.141907 
	C490.092590,692.622192 490.904877,692.631714 492.542175,692.140564 
	C503.810333,688.759888 514.822571,684.619507 526.045898,681.148438 
	C529.466553,680.090576 530.053162,678.561462 530.046265,675.499878 
	C529.971863,642.666748 530.000000,609.833313 530.000000,576.731018 
	C517.889893,572.507080 505.865417,567.615295 493.422089,564.291626 
	C487.889618,562.813965 486.963593,559.594360 486.026276,555.494019 
	C482.791443,541.342896 479.647247,527.170959 476.510956,512.997559 
	C475.470886,508.297272 474.710632,503.536835 473.029846,498.988983 
	C472.490173,497.528656 473.865265,496.594238 474.513123,495.507843 
	C484.160767,479.329834 493.853668,463.178772 503.491211,446.994751 
	C508.116974,439.226898 509.520020,430.214813 512.992554,421.996857 
	C514.040405,419.517090 515.658875,417.051422 515.858887,414.488983 
	C516.241028,409.591858 518.730286,408.810059 523.002075,408.915375 
	C533.495728,409.174133 544.001587,408.897522 554.499084,409.058472 
	C557.929443,409.111053 559.411987,407.926086 559.011047,404.498718 
	C558.934082,403.841064 559.000000,403.166656 559.000000,402.500000 
	C559.000000,279.500000 559.000000,156.500000 559.000000,33.500000 
	C559.000000,26.999994 559.000000,26.999998 552.500000,26.999998 
	C381.833344,27.000000 211.166672,27.000000 40.500000,27.000000 
	C38.816666,27.000000 37.133335,27.000000 35.250000,27.000000 
	C35.250000,312.666473 35.250000,597.833252 35.250000,883.624084 
	C45.500000,883.115906 56.000000,884.146179 66.500000,883.000000 
"/>
<path fill="none" opacity="1.000000" stroke="#000000" stroke-linecap="round" stroke-linejoin="round" stroke-width="3.000000"
	d="
M346.000000,109.000000 
	C280.832916,109.000000 215.665817,109.000000 150.250000,109.000000 
	C150.250000,125.500000 150.250000,141.500000 150.250000,158.395950 
	C152.780869,156.598877 155.162872,157.122971 157.499573,156.992447 
	C167.471237,156.435532 174.400055,150.839890 180.571854,143.560928 
	C184.521759,138.902481 189.372971,135.014740 193.411407,130.422089 
	C195.377609,128.186050 197.530624,128.319595 199.986816,127.919144 
	C211.548676,126.034111 220.667236,132.247162 230.553223,136.372467 
	C240.083694,140.349411 248.740311,145.680588 257.598267,150.830994 
	C263.221954,154.100830 270.392303,153.744308 276.447998,156.131882 
	C284.625092,159.355835 291.132233,155.225510 297.982574,152.456909 
	C308.714905,148.119385 319.307037,143.435043 330.035858,139.088470 
	C331.271454,138.587906 332.633057,138.327179 334.557739,138.708725 
	C350.729248,141.914490 366.454803,146.855286 382.653381,150.254120 
	C384.064819,156.217590 382.189117,161.910278 381.628052,167.462418 
	C381.249969,171.203705 380.830170,175.230240 380.260590,179.038971 
	C378.256561,192.438675 377.572906,206.029282 375.927948,219.491196 
	C374.483093,231.315231 373.329651,243.170288 371.866486,254.983459 
	C370.969604,262.224274 372.831360,269.015289 373.531860,275.996796 
	C374.218964,282.844818 374.946899,289.702820 376.063995,296.489471 
	C377.105743,302.818207 377.868500,309.202271 378.758240,315.533966 
	C379.639587,321.805756 380.569122,328.149353 380.952423,334.502869 
	C381.326935,340.711578 382.975189,346.742828 383.129761,352.996796 
	C383.188202,355.360809 384.448578,357.328339 388.007294,357.132996 
	C395.820648,356.704102 403.673767,357.000000 411.750000,357.000000 
	C411.750000,274.500000 411.750000,192.500000 411.750000,109.500000 
	C389.837982,109.500000 368.168976,109.500000 346.500000,109.500000 
"/>
<path fill="none" opacity="1.000000" stroke="#000000" stroke-linecap="round" stroke-linejoin="round" stroke-width="3.000000"
	d="
M539.000000,757.500000 
	C545.500000,758.581970 552.000000,757.672119 559.000000,758.136353 
	C559.000000,755.844055 559.000000,754.172058 559.000000,752.500000 
	C559.000000,642.166687 559.000000,531.833313 559.000000,421.500000 
	C559.000000,415.000000 559.000000,415.000000 552.500000,415.000000 
	C544.000000,415.000000 535.487976,415.267303 527.005127,414.885712 
	C522.846863,414.698639 521.121094,416.512909 519.976135,419.992157 
	C517.554443,427.351257 514.901062,434.634827 512.526550,442.008545 
	C509.913086,450.124176 504.628204,456.743591 500.449371,463.970734 
	C494.312500,474.584320 487.829742,484.997833 481.502838,495.501709 
	C480.089081,497.848724 479.741455,500.164703 480.415619,503.019928 
	C484.419769,519.979614 488.291351,536.973694 491.890564,554.023132 
	C492.576569,557.272644 494.483826,558.151062 496.997192,559.008240 
	C508.670197,562.989624 520.261353,567.234192 532.044922,570.853760 
	C535.469421,571.905640 536.052612,573.438599 536.046143,576.500122 
	C535.973328,611.166626 535.983582,645.833313 536.032898,680.499939 
	C536.036621,683.105652 535.780212,684.237976 532.562195,685.206543 
	C519.247253,689.214172 506.158661,693.976746 493.008392,698.524231 
	C490.948517,699.236633 489.045166,699.265198 486.992462,698.520752 
	C475.841644,694.477112 464.663879,690.507751 453.502380,686.493408 
	C451.319092,685.708130 449.297119,685.437866 446.976959,686.447083 
	C437.866547,690.409729 428.743896,694.375854 419.431305,697.813965 
	C417.682129,698.459717 416.532074,699.425171 416.099976,700.538818 
	C412.247437,710.467041 408.638336,720.489746 404.735260,731.088196 
	C412.276611,735.531189 419.910309,739.979004 427.479645,744.533813 
	C428.844147,745.354858 430.178406,744.959534 431.500153,744.964966 
	C445.333252,745.021790 459.166748,745.024353 472.999847,744.965393 
	C474.516602,744.958923 475.921997,744.990173 477.564636,744.122314 
	C486.260284,739.528442 495.488220,735.867676 503.887482,730.813049 
	C509.529785,727.417542 512.893921,721.197449 517.008606,716.006836 
	C517.444946,715.456360 518.000061,715.000061 518.832520,714.167603 
	C529.831055,719.666260 540.965027,725.232605 552.304932,730.901855 
	C547.802063,739.734436 543.401062,748.367188 539.000000,757.000000 
"/>
<path fill="none" opacity="1.000000" stroke="#000000" stroke-linecap="round" stroke-linejoin="round" stroke-width="3.000000"
	d="
M281.499969,754.999939 
	C297.084961,739.082703 312.669952,723.165466 328.133484,707.372253 
	C323.023102,687.660767 318.020905,668.327942 312.997406,649.000671 
	C307.668793,628.499451 303.058105,607.816589 297.183960,587.446960 
	C296.236328,584.160828 297.419128,579.981750 298.258759,576.563538 
	C299.372986,572.027527 299.136963,567.459045 299.761200,562.966797 
	C301.740509,548.723267 302.544983,534.320618 304.039673,520.004150 
	C305.172882,509.149902 306.641418,498.330139 308.017944,487.502289 
	C308.358582,484.822632 307.222046,482.953156 305.547302,480.960266 
	C296.939636,470.717316 288.488831,460.342529 279.753448,449.734772 
	C274.081116,452.123352 268.248840,454.468048 262.510773,457.024200 
	C255.631882,460.088562 248.862656,463.399109 241.984818,466.465973 
	C239.421249,467.609070 237.774612,469.268036 236.976837,471.993225 
	C231.925949,489.246796 225.828156,506.170319 220.773010,523.433533 
	C219.424133,528.039795 220.475433,531.979309 221.149185,535.974854 
	C224.138153,553.699585 227.792038,571.310852 230.960297,589.007080 
	C233.490326,603.138550 235.548859,617.354065 238.039520,631.493042 
	C239.836746,641.695435 242.020615,651.829346 243.970871,662.005554 
	C244.186539,663.130920 244.000000,664.333313 244.000000,665.500000 
	C244.000000,685.166687 243.993790,704.833313 244.010406,724.500000 
	C244.011932,726.292786 243.604340,728.117126 245.478485,729.528564 
	C256.688599,737.970825 267.830170,746.504211 279.012970,754.982910 
	C279.410767,755.284363 280.000000,755.333313 280.500000,755.500000 
"/>
<path fill="none" opacity="1.000000" stroke="#000000" stroke-linecap="round" stroke-linejoin="round" stroke-width="3.000000"
	d="
M270.000000,391.000000 
	C275.058563,393.008728 280.348450,391.922607 285.496368,391.819275 
	C287.609802,391.776855 288.735168,388.942261 290.051819,387.035767 
	C296.437042,377.789825 303.092957,368.730133 309.427399,359.450439 
	C310.818481,357.412567 312.201569,356.931671 314.500305,356.943604 
	C333.666443,357.042938 352.833344,357.006897 372.000000,356.988922 
	C373.836761,356.987213 375.673370,356.830688 377.486511,356.747131 
	C376.639618,349.170013 375.950684,341.817413 374.966339,334.504517 
	C373.774780,325.652100 371.971100,316.867828 371.126068,307.988007 
	C370.553070,301.967072 369.818756,295.982391 368.992920,290.000977 
	C368.048401,283.159760 367.668610,276.247681 366.071625,269.483093 
	C365.491516,267.025757 366.808472,264.520386 367.137451,262.018066 
	C368.517242,251.522507 369.373413,240.967957 370.807343,230.473679 
	C371.732178,223.705612 372.245514,216.824890 372.997345,209.999710 
	C373.880249,201.984894 374.965973,193.981522 375.798187,185.979019 
	C376.541626,178.830017 377.592804,171.690628 377.993713,164.499649 
	C378.040009,163.668900 377.920441,162.824112 378.015747,162.001831 
	C378.249207,159.987625 380.154785,157.399765 378.827484,156.189148 
	C377.221832,154.724655 374.355316,154.573822 371.996277,154.015732 
	C360.508301,151.297913 349.094208,148.279968 337.561737,145.721664 
	C334.160950,144.967270 331.182037,145.094025 328.554688,146.137650 
	C316.762482,150.821625 305.145294,155.951126 293.514160,161.032410 
	C290.385315,162.399307 287.290894,162.940292 284.001343,161.995331 
	C273.960388,159.110947 263.604614,157.426178 253.588913,154.676147 
	C247.115906,152.898865 241.055344,148.577881 235.595062,144.376450 
	C225.101532,136.302124 213.669739,132.561050 200.494904,133.951706 
	C198.104645,134.204010 196.539536,135.457840 194.999237,136.999237 
	C189.501190,142.501190 183.649734,147.701920 178.625015,153.606384 
	C175.357605,157.445877 171.312225,158.225342 166.995682,158.975128 
	C162.515076,159.753433 158.004456,160.365524 153.498444,160.988754 
	C150.472382,161.407272 149.931961,163.285477 149.955322,166.000381 
	C150.058609,177.999496 150.000000,190.000000 150.000000,202.351898 
	C157.135910,204.535324 164.601135,205.673035 172.009796,206.942871 
	C179.841309,208.285156 187.532257,210.349991 195.481522,211.177505 
	C197.683105,211.406708 199.799515,212.766174 201.243851,215.887146 
	C206.622177,227.508865 212.978561,238.677994 219.019882,250.115524 
	C212.708755,262.188538 205.860153,274.120300 200.207245,286.593903 
	C197.354111,292.889557 197.062469,300.293976 194.914093,306.972351 
	C190.961990,319.257751 190.800369,331.818268 190.959290,344.500519 
	C191.136795,358.664948 190.980637,372.833405 191.028488,386.999908 
	C191.033539,388.495026 190.509476,390.091553 191.578201,391.797882 
	C217.510529,392.975433 243.494034,390.236633 269.500000,391.000000 
"/>
<path fill="none" opacity="1.000000" stroke="#000000" stroke-linecap="round" stroke-linejoin="round" stroke-width="3.000000"
	d="
M212.000000,250.000000 
	C206.666656,239.500000 201.193420,229.067245 196.092728,218.455429 
	C194.719269,215.597961 192.505325,214.453430 189.988327,214.078323 
	C177.235931,212.177902 164.646835,209.441238 151.995041,207.025970 
	C151.522903,206.935837 150.977890,207.227478 150.250000,207.389465 
	C150.250000,268.833344 150.250000,330.166656 150.250000,391.750000 
	C162.500000,391.750000 174.500000,391.750000 187.000000,391.750000 
	C187.000000,384.841675 187.084595,378.169556 186.983795,371.500244 
	C186.706711,353.167633 187.281097,334.835602 186.730972,316.493073 
	C186.567352,311.037964 189.580719,305.562653 190.424194,299.988525 
	C193.217056,281.531952 204.395721,266.809937 212.000000,250.500000 
"/>
<path fill="none" opacity="1.000000" stroke="#000000" stroke-linecap="round" stroke-linejoin="round" stroke-width="3.000000"
	d="
M213.500000,526.500000 
	C216.456726,541.977417 218.711136,557.575195 221.889114,573.022827 
	C224.437485,585.409973 225.833191,598.029663 228.048050,610.491455 
	C230.158264,622.364441 232.970932,634.117126 234.909790,646.014709 
	C236.659027,656.748718 238.471375,667.462769 238.130280,678.504028 
	C237.626160,694.821777 238.006729,711.166687 237.992142,727.500000 
	C237.990143,729.739014 238.131897,731.401123 240.413055,733.115662 
	C253.895737,743.249329 267.112518,753.736633 280.553833,764.210205 
	C299.301575,746.627563 316.262177,727.431030 334.763611,709.239014 
	C329.706757,689.281738 324.639618,669.131592 319.489746,649.002625 
	C314.369812,628.990662 309.051788,609.028259 304.114319,588.971863 
	C303.301910,585.671875 303.684204,581.965820 304.058563,578.506348 
	C305.232666,567.655823 306.784088,556.846069 307.960999,545.995789 
	C308.826416,538.017334 308.923981,529.939209 310.100403,522.014893 
	C311.680756,511.369629 311.951294,500.592957 313.860901,489.974976 
	C314.638550,485.651093 314.240967,481.416016 310.647614,477.368927 
	C300.595245,466.046967 291.243439,454.102997 281.413422,442.159363 
	C268.906677,447.788940 256.617889,453.808289 243.940262,458.849792 
	C235.921539,462.038605 232.133438,466.911835 229.643188,475.395264 
	C224.663651,492.358704 218.861801,509.121521 213.500000,526.000000 
"/>
<path fill="none" opacity="1.000000" stroke="#000000" stroke-linecap="round" stroke-linejoin="round" stroke-width="3.000000"
	d="
M422.000031,798.500000 
	C411.946930,808.286499 401.893860,818.072937 391.439178,828.250366 
	C382.073090,818.506592 377.994598,807.406189 379.006927,794.000000 
	C366.671356,794.000000 354.835693,794.001648 343.000000,793.999023 
	C339.738708,793.998291 339.997375,796.326294 339.998535,798.500000 
	C340.002411,805.666687 340.000000,812.833313 340.000000,820.000000 
	C340.000000,839.333313 340.017548,858.666748 339.968750,877.999939 
	C339.964569,879.659851 340.654297,881.432068 338.774628,883.500000 
	C297.667999,883.500000 255.834000,883.500000 214.000000,883.500000 
"/>
<path fill="none" opacity="1.000000" stroke="#000000" stroke-linecap="round" stroke-linejoin="round" stroke-width="3.000000"
	d="
M270.000000,390.500000 
	C272.570007,386.165680 270.693481,381.453674 270.806488,376.995087 
	C271.097534,365.511505 270.781189,353.991882 270.722015,342.498871 
	C270.675812,333.521149 270.569305,324.495331 270.982208,315.499176 
	C271.013245,314.823242 271.330597,314.000671 270.069214,313.250000 
	C257.833344,313.250000 245.166672,313.250000 232.000000,313.250000 
	C232.000000,322.160248 232.000000,330.830139 232.000000,339.500000 
	C232.000000,347.166656 232.000000,354.833344 232.000000,362.500000 
	C232.000000,371.166656 231.977982,379.833496 232.043182,388.499664 
	C232.048218,389.168793 232.666672,389.833344 233.000000,390.500000 
"/>
<path fill="none" opacity="1.000000" stroke="#000000" stroke-linecap="round" stroke-linejoin="round" stroke-width="2.000000"
	d="
M170.000000,884.500000 
	C168.139267,883.331055 166.062012,883.493469 164.000000,883.494873 
	C149.666672,883.504639 135.333221,883.523926 121.000145,883.464294 
	C119.510750,883.458130 117.894569,884.115540 116.500000,883.000000 
"/>
<path fill="none" opacity="1.000000" stroke="#000000" stroke-linecap="round" stroke-linejoin="round" stroke-width="3.000000"
	d="
M233.000000,370.500000 
	C241.147690,371.596252 249.334274,370.849823 257.500641,370.941864 
	C261.658844,370.988770 265.870728,371.601837 270.000000,370.500000 
"/>
<path fill="none" opacity="1.000000" stroke="#000000" stroke-linecap="round" stroke-linejoin="round" stroke-width="3.000000"
	d="
M270.000000,380.500000 
	C262.353607,379.400330 254.665527,380.137665 246.999390,380.057922 
	C242.339539,380.009399 237.634354,379.428528 233.000000,380.500000 
"/>
<path fill="none" opacity="1.000000" stroke="#000000" stroke-linecap="round" stroke-linejoin="round" stroke-width="3.000000"
	d="
M233.000000,341.500000 
	C239.141907,342.582611 245.333847,341.833832 251.500656,341.970093 
	C257.664307,342.106293 263.833344,342.000000 270.000000,342.000000 
"/>
<path fill="none" opacity="1.000000" stroke="#000000" stroke-linecap="round" stroke-linejoin="round" stroke-width="3.000000"
	d="
M233.000000,360.500000 
	C239.141907,361.582611 245.333847,360.833832 251.500656,360.970093 
	C257.664307,361.106293 263.833344,361.000000 270.000000,361.000000 
"/>
<path fill="none" opacity="1.000000" stroke="#000000" stroke-linecap="round" stroke-linejoin="round" stroke-width="3.000000"
	d="
M270.000000,351.500000 
	C262.353607,350.400330 254.665527,351.137695 246.999390,351.057922 
	C242.339539,351.009430 237.634354,350.428528 233.000000,351.500000 
"/>
<path fill="none" opacity="1.000000" stroke="#000000" stroke-linecap="round" stroke-linejoin="round" stroke-width="3.000000"
	d="
M233.000000,331.500000 
	C239.141907,332.582611 245.333847,331.833832 251.500656,331.970093 
	C257.664307,332.106293 263.833344,332.000000 270.000000,332.000000 
"/>
<path fill="none" opacity="1.000000" stroke="#000000" stroke-linecap="round" stroke-linejoin="round" stroke-width="3.000000"
	d="
M270.000000,322.000000 
	C259.333344,322.000000 248.666641,321.988403 238.000031,322.012024 
	C236.325455,322.015717 234.603210,321.698730 233.000000,322.500000 
"/>
<path fill="none" opacity="1.000000" stroke="#000000" stroke-linecap="round" stroke-linejoin="round" stroke-width="3.000000"
	d="
M68.500000,776.000000 
	C66.573616,776.286804 67.008263,777.781311 67.007912,779.000000 
	C66.998055,813.166687 66.998573,847.333313 67.020676,881.500000 
	C67.020889,881.833557 67.333015,882.166809 67.624268,882.750000 
	C83.500000,882.750000 99.500000,882.750000 115.750000,882.750000 
	C115.750000,847.166687 115.750000,811.833313 115.750000,776.000000 
	C100.003586,776.000000 84.501793,776.000000 69.000000,776.000000 
"/>
<path fill="none" opacity="1.000000" stroke="#000000" stroke-linecap="round" stroke-linejoin="round" stroke-width="3.000000"
	d="
M213.500000,54.000000 
	C212.597031,54.097027 212.013428,54.596935 212.012436,55.500015 
	C211.995178,71.168434 212.000000,86.836876 212.000000,102.750000 
	C255.998718,102.750000 299.499359,102.750000 343.500000,102.750000 
	C343.500000,92.338539 343.789734,81.657059 343.340759,71.006714 
	C343.186310,67.342796 342.702515,63.583981 343.140472,60.017250 
	C343.847961,54.255428 343.275146,53.931614 337.499878,53.945854 
	C296.333466,54.047375 255.166672,54.000000 214.000000,54.000000 
"/>
<path fill="none" opacity="1.000000" stroke="#000000" stroke-linecap="round" stroke-linejoin="round" stroke-width="3.000000"
	d="
M207.500000,48.000000 
	C204.860992,48.786999 206.060974,50.963764 206.052124,52.500301 
	C205.965576,67.499802 206.000000,82.500000 206.000000,97.500000 
	C206.000000,99.183334 206.000000,100.866669 206.000000,103.000000 
	C185.836151,103.000000 166.163849,103.000000 146.250000,103.000000 
	C146.250000,201.500000 146.250000,299.500000 146.250000,397.750000 
	C236.833328,397.750000 327.166656,397.750000 417.750000,397.750000 
	C417.750000,299.833344 417.750000,202.166672 417.750000,103.902397 
	C395.146301,104.515152 372.825623,103.425430 350.000000,102.767159 
	C350.000000,84.503090 350.000000,66.496910 350.000000,48.000000 
	C302.334503,48.000000 255.167252,48.000000 208.000000,48.000000 
"/>
<path fill="none" opacity="1.000000" stroke="#000000" stroke-linecap="round" stroke-linejoin="round" stroke-width="3.000000"
	d="
M312.500000,363.000000 
	C304.492767,371.559265 298.864716,381.788116 291.621063,391.750000 
	C332.166656,391.750000 371.833344,391.750000 411.750000,391.750000 
	C411.750000,382.166656 411.750000,372.833344 411.750000,363.000000 
	C378.668365,363.000000 345.834167,363.000000 313.000000,363.000000 
"/>
</svg>