<?xml version="1.0" encoding="UTF-8"?>
<svg id="Layer_1" xmlns="http://www.w3.org/2000/svg" version="1.1" viewBox="0 0 1366 768">
  <!-- Generator: Adobe Illustrator 30.2.1, SVG Export Plug-In . SVG Version: 2.1.1 Build 1)  -->
  <defs>
    <style>
      .st0 {
        stroke-width: 10px;
      }

      .st0, .st1 {
        fill: #fff;
        stroke: #5c88a8;
        stroke-miterlimit: 10;
      }

      .st1 {
        stroke-width: 3px;
      }
    </style>
  </defs>
  <path class="st1" d="M544.23,326.87c-4.03-3.18-9.7-4.8-16.98-4.89v-.67c4.98-.5,9-1.81,12.02-3.96,3.94-2.79,5.91-6.78,5.91-11.94,0-6.08-2.07-10.77-6.22-14.05s-10.02-4.93-17.61-4.93h-22.25v74.88h28.69c7.24,0,12.83-1.79,16.77-5.38s5.91-8.65,5.91-15.19c0-5.98-2.07-10.6-6.22-13.87h-.02ZM520.82,296.44c4.25,0,7.53.86,9.83,2.58s3.45,4.2,3.45,7.44-1.1,5.84-3.3,7.62-5.28,2.66-9.25,2.66h-11.5v-20.3h10.77ZM535.53,348.09c-2.57,2.13-6.17,3.19-10.81,3.19h-14.66v-24.52h13.92c4.92,0,8.72,1.08,11.39,3.24s4.01,5.21,4.01,9.15-1.28,6.81-3.85,8.94h0Z"/>
  <polygon class="st1" points="594.85 315.21 594.85 308.57 594.85 305.41 565.53 305.41 565.53 315.21 583.67 315.21 583.67 351.5 562.37 351.5 562.37 361.3 583.67 361.3 584.73 361.3 593.8 361.3 594.85 361.3 612.05 361.3 612.05 351.5 594.85 351.5 594.85 315.21"/>
  <path class="st1" d="M588.9,296.55c2.18,0,4.03-.76,5.54-2.29s2.27-3.37,2.27-5.51-.76-4.03-2.27-5.54-3.36-2.27-5.54-2.27-3.98.76-5.51,2.27-2.29,3.36-2.29,5.54.76,3.98,2.29,5.51,3.37,2.29,5.51,2.29Z"/>
  <path class="st1" d="M653.07,304.35c-4.68,0-8.23.92-10.65,2.77s-3.8,4.65-4.11,8.41h-1.21l-.9-10.12h-10.12v55.9h11.18v-31.43c0-10.34,4.39-15.5,13.18-15.5,3.16,0,5.62.91,7.38,2.74s2.64,4.43,2.64,7.8v36.39h11.18v-36.39c0-6.54-1.62-11.6-4.85-15.19s-7.8-5.38-13.71-5.38h0Z"/>
  <polygon class="st1" points="769.93 286.42 748 286.42 748 296.44 769.93 296.44 769.93 361.3 780.9 361.3 780.9 296.44 802.84 296.44 802.84 286.42 780.9 286.42 769.93 286.42"/>
  <path class="st1" d="M827.1,329.88c0-10.69,4.39-16.03,13.18-16.03,3.16,0,5.62.96,7.38,2.87s2.64,4.65,2.64,8.2v36.39h11.18v-36.39c0-6.54-1.62-11.6-4.85-15.19s-7.8-5.38-13.71-5.38c-4.68,0-8.23.92-10.65,2.77s-3.8,4.65-4.11,8.41h-1.05v-33.33h-11.18v79.1h11.18v-31.43h-.01Z"/>
  <path class="st1" d="M902.19,304.35c-8.02,0-14.22,2.53-18.62,7.59s-6.59,12.16-6.59,21.3,2.59,16.58,7.78,21.59,12.54,7.51,22.07,7.51c2.11,0,4.54-.09,7.28-.26s5.77-.58,9.07-1.21l-1.37-9.81c-2.32.46-4.61.82-6.86,1.08s-4.54.4-6.86.4c-6.64,0-11.77-1.69-15.37-5.06-2.48-2.32-4.08-5.39-4.86-9.18h37.74c.21-2.21.32-4.61.32-7.17,0-8.72-2.07-15.36-6.2-19.93s-9.98-6.86-17.53-6.86h0ZM887.45,329.77c.38-4.49,1.63-8.09,3.79-10.76,2.62-3.23,6.3-4.85,11.05-4.85,4.22,0,7.52,1.34,9.91,4.03s3.59,6.55,3.59,11.58h-28.34,0Z"/>
  <path class="st1" d="M961.46,361.3h13.71v-9.81h-13.71v-14.24c0-7.49,1.17-13.26,3.51-17.32s5.88-6.09,10.63-6.09c2.71,0,4.67.9,5.88,2.69s1.82,4.73,1.82,8.81h11.07c0-7.38-1.3-12.73-3.9-16.03s-6.79-4.96-12.55-4.96c-9.63,0-14.77,5.13-15.4,15.4h-1.28l-1.89-14.34h-19.41v9.81h10.34v36.28h-12.45v9.81h23.63Z"/>
  <path class="st1" d="M1033.39,362.36c2.11,0,4.54-.09,7.28-.26s5.77-.58,9.07-1.21l-1.37-9.81c-2.32.46-4.61.82-6.86,1.08s-4.54.4-6.86.4c-6.64,0-11.77-1.69-15.37-5.06-2.48-2.32-4.08-5.39-4.86-9.18h37.74c.21-2.21.32-4.61.32-7.17,0-8.72-2.07-15.36-6.2-19.93s-9.98-6.86-17.53-6.86c-8.02,0-14.22,2.53-18.62,7.59s-6.59,12.16-6.59,21.3,2.59,16.58,7.78,21.59,12.54,7.51,22.07,7.51h0ZM1028.86,314.16c4.22,0,7.52,1.34,9.91,4.03s3.59,6.55,3.59,11.58h-28.34c.38-4.49,1.63-8.09,3.79-10.76,2.62-3.23,6.3-4.85,11.05-4.85h0Z"/>
  <path class="st1" d="M1112.92,346.75c-2.14,0-3.98.76-5.51,2.27s-2.29,3.36-2.29,5.54.76,3.98,2.29,5.51,3.37,2.29,5.51,2.29,4.03-.76,5.54-2.29,2.27-3.37,2.27-5.51-.76-4.03-2.27-5.54-3.36-2.27-5.54-2.27Z"/>
  <path class="st1" d="M1197.29,346.75c-2.14,0-3.98.76-5.51,2.27s-2.29,3.36-2.29,5.54.76,3.98,2.29,5.51,3.37,2.29,5.51,2.29,4.03-.76,5.54-2.29,2.27-3.37,2.27-5.51-.76-4.03-2.27-5.54-3.36-2.27-5.54-2.27Z"/>
  <path class="st1" d="M1155.1,346.75c-2.14,0-3.98.76-5.51,2.27s-2.29,3.36-2.29,5.54.76,3.98,2.29,5.51,3.37,2.29,5.51,2.29,4.03-.76,5.54-2.29,2.27-3.37,2.27-5.51-.76-4.03-2.27-5.54-3.36-2.27-5.54-2.27Z"/>
  <path class="st1" d="M516.17,416.02h-18.14v74.88h18.14c22.85,0,34.28-12.13,34.28-36.39,0-25.66-11.43-38.5-34.28-38.5h0ZM533.55,474.29c-3.88,4.39-9.68,6.59-17.38,6.59h-7.17v-54.84h7.17c7.7,0,13.49,2.36,17.38,7.09s5.83,11.86,5.83,21.38c0,8.79-1.94,15.38-5.83,19.78Z"/>
  <path class="st1" d="M585.57,433.95c-7.73,0-13.75,2.52-18.04,7.57s-6.43,12.19-6.43,21.44,2.14,16.35,6.43,21.41,10.3,7.59,18.04,7.59,13.79-2.53,18.06-7.59,6.41-12.2,6.41-21.41-2.14-16.39-6.41-21.44-10.29-7.57-18.06-7.57ZM595.09,476.98c-2.23,3.3-5.41,4.96-9.52,4.96s-7.29-1.65-9.52-4.96-3.35-7.98-3.35-14.03,1.12-10.77,3.35-14.05,5.41-4.93,9.52-4.93,7.29,1.64,9.52,4.93,3.35,7.97,3.35,14.05-1.12,10.72-3.35,14.03Z"/>
  <path class="st1" d="M653.07,433.95c-4.68,0-8.23.92-10.65,2.77s-3.8,4.65-4.11,8.41h-1.21l-.9-10.12h-10.12v55.9h11.18v-31.43c0-10.34,4.39-15.5,13.18-15.5,3.16,0,5.62.91,7.38,2.74s2.64,4.43,2.64,7.8v36.39h11.18v-36.39c0-6.54-1.62-11.6-4.85-15.19s-7.8-5.38-13.71-5.38h0Z"/>
  <path class="st1" d="M712.35,433.95c-8.02,0-14.22,2.53-18.62,7.59s-6.59,12.16-6.59,21.3,2.59,16.58,7.78,21.59,12.54,7.51,22.07,7.51c2.11,0,4.54-.09,7.28-.26s5.77-.58,9.07-1.21l-1.37-9.81c-2.32.46-4.61.82-6.86,1.08s-4.54.4-6.86.4c-6.64,0-11.77-1.69-15.37-5.06-2.48-2.32-4.08-5.39-4.86-9.18h37.74c.21-2.21.32-4.61.32-7.17,0-8.72-2.07-15.36-6.2-19.93s-9.98-6.86-17.53-6.86h0ZM697.61,459.37c.38-4.49,1.63-8.09,3.79-10.76,2.62-3.23,6.3-4.85,11.05-4.85,4.22,0,7.52,1.34,9.91,4.03s3.59,6.55,3.59,11.58h-28.34,0Z"/>
  <polygon class="st1" points="833.21 416.02 811.28 416.02 811.28 426.04 833.21 426.04 833.21 490.91 844.18 490.91 844.18 426.04 866.12 426.04 866.12 416.02 844.18 416.02 833.21 416.02"/>
  <path class="st1" d="M906.2,433.95c-4.68,0-8.23.92-10.65,2.77s-3.8,4.65-4.11,8.41h-1.05v-33.33h-11.18v79.1h11.18v-31.43c0-10.69,4.39-16.03,13.18-16.03,3.16,0,5.62.96,7.38,2.87s2.64,4.65,2.64,8.2v36.39h11.18v-36.39c0-6.54-1.62-11.6-4.85-15.19s-7.8-5.38-13.71-5.38h-.01Z"/>
  <path class="st1" d="M985.19,457.47c0-7.38-2.24-13-6.72-16.85s-11.35-5.84-20.59-5.99l-11.29-.16-1.05,9.91,13.39.37c5.17.14,9.06,1.08,11.68,2.82s3.93,4.47,3.93,8.2v2.58c-.53-.1-1.06-.2-1.61-.29-2.62-.4-5.6-.61-8.94-.61-8.05,0-14.28,1.58-18.69,4.75s-6.62,7.7-6.62,13.61c0,5.13,1.6,9.11,4.8,11.92s7.72,4.22,13.55,4.22c3.69,0,6.89-.54,9.6-1.61s4.81-2.69,6.3-4.85c1.23-1.77,1.94-3.91,2.16-6.41h1.11l.55,12.34,17.93-.53v-8.96l-9.49-1.16v-23.31h0ZM972.8,476.61c-1.16,1.86-2.91,3.39-5.25,4.59s-5.25,1.79-8.73,1.79c-3.06,0-5.42-.67-7.09-2s-2.5-3.23-2.5-5.7c0-5.91,4.85-8.86,14.55-8.86,2.36,0,4.66.04,6.91.13,1.27.05,2.55.18,3.85.36v3.93c0,1.97-.58,3.88-1.74,5.75h0Z"/>
  <path class="st1" d="M1045.31,481.65c-1.97.19-3.83.29-5.59.29-4.96,0-8.52-1-10.68-3.01s-3.24-5.22-3.24-9.65v-24.47h25.42v-9.81h-25.42v-16.88h-11.18v16.88h-14.03v9.81h14.03v25c0,7.73,1.89,13.36,5.67,16.88,3.78,3.52,9.91,5.27,18.38,5.27,2.64,0,5.12-.11,7.46-.32s4.74-.53,7.2-.95l-1.27-9.81c-2.53.32-4.78.57-6.75.76h0Z"/>
  <path class="st1" d="M1197.29,476.35c-2.14,0-3.98.76-5.51,2.27s-2.29,3.36-2.29,5.54.76,3.98,2.29,5.51,3.37,2.29,5.51,2.29,4.03-.76,5.54-2.29,2.27-3.37,2.27-5.51-.76-4.03-2.27-5.54-3.36-2.27-5.54-2.27Z"/>
  <path class="st1" d="M1155.1,476.35c-2.14,0-3.98.76-5.51,2.27s-2.29,3.36-2.29,5.54.76,3.98,2.29,5.51,3.37,2.29,5.51,2.29,4.03-.76,5.54-2.29,2.27-3.37,2.27-5.51-.76-4.03-2.27-5.54-3.36-2.27-5.54-2.27Z"/>
  <path class="st1" d="M1112.92,476.35c-2.14,0-3.98.76-5.51,2.27s-2.29,3.36-2.29,5.54.76,3.98,2.29,5.51,3.37,2.29,5.51,2.29,4.03-.76,5.54-2.29,2.27-3.37,2.27-5.51-.76-4.03-2.27-5.54-3.36-2.27-5.54-2.27Z"/>
  <path class="st0" d="M48.69,262.99l-.15,217.76c-.02,24.85,20.12,45.01,44.97,45.03l348.99.25.22-307.76-348.99-.25c-24.85-.02-45.01,20.12-45.03,44.97h-.01ZM122.65,262.14l250.43.18-.02,25.86-250.43-.18.02-25.86ZM122.6,326.71l250.43.18-.02,25.86-250.43-.18.02-25.86h0ZM122.56,391.28l250.43.18-.02,25.86-250.43-.18.02-25.86h0ZM118.16,455.85l250.43.18-.02,25.86-250.43-.18.02-25.86h0Z"/>
  <path class="st0" d="M1319.12,283.99l-82.52-35.13,7.44-17.48c1.08-2.54-.1-5.48-2.64-6.56l-77.66-33.06c-2.54-1.08-5.48.1-6.56,2.64l-7.44,17.48h0l-86.18-36.69c-7.62-3.24-16.43.3-19.68,7.93l-15.86,37.26,283.17,120.54,15.86-37.26c3.24-7.62-.3-16.43-7.93-19.68h0Z"/>
</svg>