<?xml version="1.0" encoding="UTF-8"?>
<svg id="Layer_1" xmlns="http://www.w3.org/2000/svg" version="1.1" viewBox="0 0 1280 720">
  <!-- Generator: Adobe Illustrator 30.3.0, SVG Export Plug-In . SVG Version: 2.1.3 Build 182)  -->
  <defs>
    <style>
      .st0 {
        fill: #f5f7fa;
      }
    </style>
  </defs>
  <g>
    <path class="st0" d="M516.61,193.89h-22.13v-24.13h76.73v24.13h-21.95v122.8h-32.65v-122.8Z"/>
    <path class="st0" d="M582.63,169.76h29.39v51.34c7.8-7.8,16.14-11.07,25.76-11.07,12.52,0,19.23,10.52,19.23,24.49v82.17h-29.39v-78c0-5.08-1.45-7.8-5.99-7.8-2.54,0-5.99,1.45-9.61,3.81v81.99h-29.39v-146.93Z"/>
    <path class="st0" d="M672.59,283.5v-38.46c0-22.49,13.79-35.01,36.46-35.01s34.83,12.15,34.83,35.01v21.04h-42.08v20.13c0,8.16,2.9,11.25,7.26,11.25s7.62-2.54,7.62-10.16v-11.07h27.21v10.16c0,21.22-13.06,32.11-34.83,32.11-22.86,0-36.46-12.7-36.46-35.01ZM716.67,252.3v-10.52c0-8.34-3.26-10.7-7.8-10.7s-7.07,2.72-7.07,12.34v8.89h14.87Z"/>
    <path class="st0" d="M806.08,269.9v-52.97c0-30.48,10.52-49.16,44.08-49.16s42.27,17.41,42.27,42.45v12.7h-31.74v-14.69c0-8.53-.18-17.6-10.52-17.6s-11.25,9.25-11.25,18.14v69.11c0,9.98,1.63,17.96,11.25,17.96,10.16,0,10.52-9.07,10.52-17.96v-15.42h31.74v12.7c0,25.03-9.43,43.72-42.27,43.72s-44.08-19.23-44.08-48.98Z"/>
    <path class="st0" d="M908.92,211.85h29.57v17.41c6.71-11.97,12.7-18.68,22.49-18.68,1.81,0,3.27.18,4.54.54v29.39c-2.72-1.09-5.99-2.18-9.61-2.18-6.89,0-12.7,3.99-17.41,10.16v68.2h-29.57v-104.85Z"/>
    <path class="st0" d="M976.94,294.02v-82.17h29.57v78.73c0,5.08,1.63,7.98,6.17,7.98,2.54,0,5.44-1.45,8.71-3.26v-83.44h29.39v104.85h-29.39v-9.61c-7.62,7.07-15.96,11.43-24.85,11.43-12.88,0-19.59-10.52-19.59-24.49Z"/>
    <path class="st0" d="M1084.49,259.19l-21.22-47.34h29.75l11.25,25.21,9.98-25.21h22.67l-20.68,51.7,23.76,53.15h-30.11l-12.7-28.84-10.52,28.84h-24.49l22.31-57.5Z"/>
  </g>
  <g>
    <path class="st0" d="M495.59,498.78v-52.97c0-30.48,10.52-49.16,44.08-49.16s42.27,17.41,42.27,42.45v12.7h-31.74v-14.69c0-8.53-.18-17.6-10.52-17.6s-11.25,9.25-11.25,18.14v69.11c0,9.98,1.63,17.96,11.25,17.96,10.16,0,10.52-9.07,10.52-17.96v-15.42h31.74v12.7c0,25.03-9.43,43.72-42.27,43.72s-44.08-19.23-44.08-48.98Z"/>
    <path class="st0" d="M595.89,513.11v-39.91c0-22.86,14.15-34.28,36.64-34.28s36.82,11.43,36.82,34.28v39.91c0,22.86-14.51,34.28-36.82,34.28s-36.64-11.43-36.64-34.28ZM640.15,515.1v-43.9c0-7.98-1.63-12.7-7.44-12.7s-7.62,4.9-7.62,12.7v43.9c0,7.98,1.81,12.7,7.62,12.7s7.44-4.72,7.44-12.7Z"/>
    <path class="st0" d="M686.03,440.73h29.57v17.41c6.71-11.97,12.7-18.68,22.49-18.68,1.81,0,3.27.18,4.54.54v29.39c-2.72-1.09-5.99-2.18-9.61-2.18-6.89,0-12.7,3.99-17.41,10.16v68.2h-29.57v-104.85Z"/>
    <path class="st0" d="M755.14,440.73h29.57v10.52c7.62-7.62,15.96-12.34,25.21-12.34,12.88,0,19.41,10.52,19.41,24.49v82.17h-29.39v-78c0-5.08-1.45-7.8-5.99-7.8-2.36,0-5.8,1.45-9.25,3.81v81.99h-29.57v-104.85Z"/>
    <path class="st0" d="M844.92,512.38v-38.46c0-22.49,13.79-35.01,36.46-35.01s34.83,12.15,34.83,35.01v21.04h-42.08v20.13c0,8.16,2.9,11.25,7.26,11.25s7.62-2.54,7.62-10.16v-11.07h27.21v10.16c0,21.22-13.06,32.11-34.83,32.11-22.86,0-36.46-12.7-36.46-35.01ZM889,481.18v-10.52c0-8.34-3.26-10.7-7.8-10.7s-7.07,2.72-7.07,12.34v8.89h14.87Z"/>
    <path class="st0" d="M932.7,440.73h29.57v17.41c6.71-11.97,12.7-18.68,22.49-18.68,1.81,0,3.27.18,4.54.54v29.39c-2.72-1.09-5.99-2.18-9.61-2.18-6.89,0-12.7,3.99-17.41,10.16v68.2h-29.57v-104.85Z"/>
  </g>
  <g>
    <path class="st0" d="M438.21,216.67c-.68-12.97-11.74-22.93-24.71-22.25-12.97.68-22.93,11.75-22.25,24.72.68,12.97,11.74,22.93,24.71,22.25,12.97-.68,22.93-11.74,22.25-24.71Z"/>
    <path class="st0" d="M419.07,278.08c-.02-.07-.06-.13-.09-.2-.02-.07-.02-.14-.05-.21l-7.94-24.44c-.28-2.03-1.69-3.82-3.78-4.45l-8.06-2.46c-.11-.11-.21-.22-.34-.32l-20.35-15.33-11.23-34.56c-.46-1.41-1.6-2.39-2.93-2.73v-5.87l.48.19,8.21-4.19-.48-7.72-8.21-3.34v-.19h-224.3v379.97h118.82v-13.82l7.58-2.46.77-13.62-9.92-10.15-10.7,3.48v.16s-5.98-4.05-5.98-4.05l.96-3.44-7.61-10.84-10.67,2.54-14.63-9.92,3.34-15.11-7.56-9.42,8.72-18.64-6.73-23.12,19.42-14.58,9.54,4.53,12.55-5.95v-7.08l2.51-9.96,18.63-13.99h13.9l3.11-5.01,7.92,2.41,5.22-8.01-2.87-10.47-.24-.07,15.4-24.8-6.09-9.8,10.69-11.28-3.83-29.21,1.31-.63,1.13-4.29-3.18-2.22-.18.09-2.76-21.07,4.76-4.32-1.16-8.21-5.72-3.63-1.28-9.78-.14-.07v-3.59l14.94-5.15,1.07-9.97,25.25-11.54h13.03c-.25.8-.28,1.67,0,2.53l11.45,35.25c.23.71.64,1.3,1.16,1.76.27.5.65.95,1.13,1.31l18.87,14.22-17.79,58.2-34.71,11.28c-1.18.38-2.06,1.25-2.51,2.31-.06.09-.12.17-.17.27l-16.83,33.03c-1.04,2.04-.23,4.53,1.81,5.57,2.04,1.04,4.53.23,5.57-1.81l16.31-32.02,33.32-10.83c.15.06.29.14.45.19l6.97,2.13,10.42,32.07c0,.1,0,.2.01.3l5.16,36.71c.32,2.27,2.41,3.84,4.68,3.53,2.27-.32,3.84-2.41,3.53-4.68l-5.16-36.71c-.01-.1-.05-.2-.07-.3-.01-.39-.06-.77-.18-1.16l-10.64-32.74c.04-.1.1-.2.13-.31l14.78-48.36,4,12.32c.02.07.06.13.09.2.02.07.02.14.05.21l11.28,34.73c.71,2.18,3.04,3.37,5.22,2.66,2.18-.71,3.37-3.04,2.66-5.22l-11.28-34.73Z"/>
  </g>
</svg>